<?xml version="1.0" encoding="UTF-8"?>
<svg width="38px" height="38px" viewBox="0 0 38 38" version="1.1" xmlns="http://www.w3.org/2000/svg" xmlns:xlink="http://www.w3.org/1999/xlink">
    <!-- Generator: Sketch 41.2 (35397) - http://www.bohemiancoding.com/sketch -->
    <title>Signifier</title>
    <desc>Created with Sketch.</desc>
    <defs></defs>
    <g id="Symbols" stroke="none" stroke-width="1" fill="none" fill-rule="evenodd">
        <g id="Signifier" fill="#FDFFFC">
            <path d="M11.5966785,1.484375 C9.28351875,2.4739615 7.2672625,3.828443 5.54785275,5.54785275 C3.82844205,7.2672625 2.4739634,9.28351875 1.484375,11.5966785 C0.4947866,13.909843 0,16.3775915 0,19 C0,21.6224085 0.4947866,24.090157 1.484375,26.4033215 C2.4739634,28.7164812 3.82844205,30.7327375 5.54785275,32.4521473 C7.2672625,34.171558 9.28351875,35.5260366 11.5966785,36.515625 C13.909843,37.5052134 16.3775915,38 19,38 C21.6224085,38 24.090157,37.5052134 26.4033215,36.515625 C28.7164813,35.5260366 30.7327375,34.171558 32.4521473,32.4521473 C34.171557,30.7327375 35.5260385,28.7164812 36.515625,26.4033215 C37.5052115,24.090157 38,21.6224085 38,19 C38,16.3775915 37.5052115,13.909843 36.515625,11.5966785 C35.5260385,9.28351875 34.171557,7.2672625 32.4521473,5.54785275 C30.7327375,3.828443 28.7164813,2.4739615 26.4033215,1.484375 C24.090157,0.4947885 21.6224085,0 19,0 C16.3775915,0 13.909843,0.4947885 11.5966785,1.484375 Z M12.5244153,34.3261719 C10.5081257,33.460282 8.74544825,32.272792 7.2363305,30.7636695 C5.727208,29.2545518 4.53971798,27.4918742 3.67382812,25.4755847 C2.80793828,23.4593 2.375,21.3007908 2.375,19 C2.375,16.6992092 2.80793828,14.5407 3.67382812,12.5244152 C4.53971798,10.5081257 5.727208,8.74544825 7.2363305,7.2363305 C8.74544825,5.727208 10.5081257,4.5397175 12.5244153,3.6738305 C14.5407,2.80793875 16.6992093,2.375 19,2.375 C21.3007908,2.375 23.4593,2.80793875 25.4755848,3.6738305 C27.4918743,4.5397175 29.2545518,5.727208 30.7636695,7.2363305 C32.272792,8.74544825 33.4602825,10.5081257 34.3261695,12.5244152 C35.1920613,14.5407 35.625,16.6992092 35.625,19 C35.625,21.3007908 35.1920613,23.4593 34.3261695,25.4755847 C33.4602825,27.4918742 32.272792,29.2545518 30.7636695,30.7636695 C29.2545518,32.272792 27.4918743,33.460282 25.4755848,34.3261719 C23.4593,35.1920617 21.3007908,35.625 19,35.625 C16.6992093,35.625 14.5407,35.1920617 12.5244153,34.3261719 Z M20.1875,23.2675805 L20.1875,10.6875 C20.1875,10.3658822 20.0699897,10.0875655 19.8349597,9.85254025 C19.5999345,9.61751025 19.3216177,9.5 19,9.5 C18.6783822,9.5 18.4000655,9.61751025 18.1650402,9.85254025 C17.9300102,10.0875655 17.8125,10.3658822 17.8125,10.6875 L17.8125,23.2675805 L12.9140625,18.369143 C12.6914062,18.121744 12.4130895,17.9980445 12.0791027,17.9980445 C11.745116,17.9980445 11.4667992,18.121744 11.244143,18.369143 C10.996744,18.5917992 10.8730445,18.870116 10.8730445,19.2041027 C10.8730445,19.5380895 10.996744,19.8164062 11.244143,20.0390625 L17.9609375,26.755857 C18.109375,26.9042993 18.276366,27.003256 18.4619152,27.052732 C18.6474597,27.1022127 18.8268197,27.1022127 19,27.052732 C19.1731802,27.1022127 19.3525402,27.1022127 19.5380847,27.052732 C19.723634,27.003256 19.890625,26.9042993 20.0390625,26.755857 L26.755857,20.0390625 C27.003256,19.8164062 27.1269555,19.5380895 27.1269555,19.2041027 C27.1269555,18.870116 27.003256,18.5917992 26.755857,18.369143 C26.5332007,18.121744 26.254884,17.9980445 25.9208972,17.9980445 C25.5869105,17.9980445 25.3085937,18.121744 25.0859375,18.369143 L20.1875,23.2675805 Z"></path>
        </g>
    </g>
</svg>